<?xml version="1.0" encoding="utf-8"?>
<!DOCTYPE svg PUBLIC "-//W3C//DTD SVG 1.0//EN" "http://www.w3.org/TR/2001/REC-SVG-20010904/DTD/svg10.dtd">
<svg version="1.0" id="Layer_1" xmlns="http://www.w3.org/2000/svg" xmlns:xlink="http://www.w3.org/1999/xlink" x="0px" y="0px"
	 width="111.57px" height="111.313px" viewBox="0 -55.657 111.57 111.313" enable-background="new 0 -55.657 111.57 111.313"
	 xml:space="preserve">
<g opacity="0.05">
	<polygon fill="#FFFFFF" points="2.046,51.929 0,49.89 0,54.042 1.621,55.657 1.659,55.619 1.681,55.641 1.664,55.657 5.83,55.657 
		5.847,55.641 2.084,51.891 	"/>
	<polygon fill="#FFFFFF" points="6.042,47.948 0,41.927 0,46.08 5.617,51.675 5.654,51.638 9.672,55.641 9.656,55.657 
		13.822,55.657 13.839,55.641 6.079,47.911 	"/>
	<polygon fill="#FFFFFF" points="10.037,43.966 0,33.965 0,38.117 9.613,47.695 9.651,47.657 17.664,55.641 17.647,55.657 
		21.813,55.657 21.83,55.641 10.075,43.928 	"/>
	<polygon fill="#FFFFFF" points="14.032,39.984 0,26.005 0,30.155 13.607,43.713 13.646,43.675 25.654,55.641 25.638,55.657 
		29.805,55.657 29.821,55.641 14.07,39.947 	"/>
	<polygon fill="#FFFFFF" points="18.029,36.004 0,18.039 0,22.193 17.604,39.732 17.642,39.694 33.646,55.641 33.63,55.657 
		37.796,55.657 37.813,55.641 18.066,35.967 	"/>
	<polygon fill="#FFFFFF" points="22.024,32.022 0,10.078 0,14.23 21.599,35.751 21.637,35.713 41.637,55.641 41.621,55.657 
		45.789,55.657 45.805,55.641 22.062,31.984 	"/>
	<polygon fill="#FFFFFF" points="26.02,28.042 0,2.117 0,6.267 25.596,31.769 25.634,31.731 49.63,55.641 49.613,55.657 
		53.778,55.657 53.794,55.641 26.058,28.004 	"/>
	<path fill="#FFFFFF" d="M81.843,27.653L109.58,0.016L109.563,0l0.017-0.016L81.843-27.653l-0.038,0.038L55.785-53.54L29.764-27.615
		l-0.038-0.038L1.99-0.016L2.007,0L1.99,0.016l27.736,27.637l0.038-0.038L55.785,53.54l26.021-25.925L81.843,27.653z M81.38,23.887
		L55.785,49.39L30.189,23.887l-0.038,0.038L6.154,0.016L6.172,0L6.154-0.016l23.997-23.91l0.038,0.038L55.785-49.39L81.38-23.887
		l0.038-0.038l23.997,23.91L105.398,0l0.018,0.016l-23.997,23.91L81.38,23.887z"/>
	<polygon fill="#FFFFFF" points="109.486,51.891 105.722,55.641 105.74,55.657 109.906,55.657 109.888,55.641 109.911,55.619 
		109.949,55.657 111.57,54.042 111.57,49.89 109.524,51.929 	"/>
	<polygon fill="#FFFFFF" points="105.491,47.911 97.731,55.641 97.748,55.657 101.914,55.657 101.898,55.641 105.916,51.638 
		105.953,51.675 111.57,46.08 111.57,41.927 105.528,47.948 	"/>
	<polygon fill="#FFFFFF" points="101.495,43.928 89.74,55.641 89.756,55.657 93.922,55.657 93.906,55.641 101.918,47.657 
		101.957,47.695 111.57,38.117 111.57,33.965 101.533,43.966 	"/>
	<polygon fill="#FFFFFF" points="97.5,39.947 81.749,55.641 81.764,55.657 85.931,55.657 85.916,55.641 97.924,43.675 
		97.962,43.713 111.57,30.155 111.57,26.005 97.538,39.984 	"/>
	<polygon fill="#FFFFFF" points="93.503,35.967 73.756,55.641 73.773,55.657 77.939,55.657 77.923,55.641 93.928,39.694 
		93.966,39.732 111.57,22.193 111.57,18.039 93.541,36.004 	"/>
	<polygon fill="#FFFFFF" points="89.507,31.984 65.764,55.641 65.781,55.657 69.949,55.657 69.932,55.641 89.932,35.713 
		89.971,35.751 111.57,14.23 111.57,10.078 89.545,32.022 	"/>
	<polygon fill="#FFFFFF" points="85.511,28.004 57.775,55.641 57.792,55.657 61.957,55.657 61.939,55.641 85.936,31.731 
		85.974,31.769 111.57,6.267 111.57,2.117 85.549,28.042 	"/>
	<polygon fill="#FFFFFF" points="2.084,-51.891 5.847,-55.641 5.83,-55.657 1.664,-55.657 1.681,-55.641 1.659,-55.619 
		1.621,-55.657 0,-54.042 0,-49.89 2.046,-51.929 	"/>
	<polygon fill="#FFFFFF" points="6.079,-47.911 13.839,-55.641 13.822,-55.657 9.656,-55.657 9.672,-55.641 5.654,-51.638 
		5.617,-51.675 0,-46.08 0,-41.927 6.042,-47.948 	"/>
	<polygon fill="#FFFFFF" points="10.075,-43.928 21.83,-55.641 21.813,-55.657 17.647,-55.657 17.664,-55.641 9.651,-47.657 
		9.613,-47.695 0,-38.117 0,-33.965 10.037,-43.966 	"/>
	<polygon fill="#FFFFFF" points="14.07,-39.947 29.821,-55.641 29.805,-55.657 25.638,-55.657 25.654,-55.641 13.646,-43.675 
		13.607,-43.713 0,-30.155 0,-26.005 14.032,-39.984 	"/>
	<polygon fill="#FFFFFF" points="18.066,-35.967 37.813,-55.641 37.796,-55.657 33.63,-55.657 33.646,-55.641 17.642,-39.694 
		17.604,-39.732 0,-22.193 0,-18.039 18.029,-36.004 	"/>
	<polygon fill="#FFFFFF" points="22.062,-31.984 45.805,-55.641 45.789,-55.657 41.621,-55.657 41.637,-55.641 21.637,-35.713 
		21.599,-35.751 0,-14.23 0,-10.078 22.024,-32.022 	"/>
	<polygon fill="#FFFFFF" points="26.058,-28.004 53.794,-55.641 53.778,-55.657 49.613,-55.657 49.63,-55.641 25.634,-31.731 
		25.596,-31.769 0,-6.267 0,-2.117 26.02,-28.042 	"/>
	<path fill="#FFFFFF" d="M57.869-3.766l-0.038,0.038l-2.046-2.039l-2.046,2.039l-0.038-0.038l-3.764,3.75L49.955,0l-0.018,0.016
		l3.764,3.75l0.038-0.038l2.046,2.039l2.046-2.039l0.038,0.038l3.764-3.75L61.615,0l0.018-0.016L57.869-3.766z M57.466,0.016
		l-0.022,0.022L57.406,0l-1.621,1.614L54.164,0l-0.038,0.038l-0.022-0.022L54.121,0l-0.018-0.016l0.022-0.022L54.164,0l1.621-1.614
		L57.406,0l0.038-0.038l0.022,0.022L57.449,0L57.466,0.016z"/>
	<path fill="#FFFFFF" d="M61.864-7.746l-0.037,0.037l-6.042-6.02l-6.042,6.02l-0.037-0.037l-7.76,7.73L41.962,0l-0.017,0.016
		l7.76,7.73l0.037-0.037l6.042,6.02l6.042-6.02l0.037,0.037l7.76-7.73L69.607,0l0.017-0.016L61.864-7.746z M65.457,0.016
		l-4.018,4.002l-0.037-0.037l-5.617,5.596l-5.617-5.596L50.13,4.018l-4.018-4.002L46.128,0l-0.016-0.016l4.018-4.002l0.037,0.037
		l5.617-5.596l5.617,5.596l0.037-0.037l4.018,4.002L65.441,0L65.457,0.016z"/>
	<path fill="#FFFFFF" d="M65.86-11.729l-0.038,0.038l-10.037-10l-10.037,10l-0.038-0.038L33.955-0.016L33.972,0l-0.018,0.016
		l11.755,11.713l0.038-0.038l10.037,10l10.037-10l0.038,0.038L77.615,0.016L77.597,0l0.018-0.016L65.86-11.729z M73.449,0.016
		L65.436,8l-0.038-0.038l-9.613,9.578l-9.613-9.578L46.133,8l-8.013-7.984L38.138,0l-0.018-0.016L46.133-8l0.038,0.038l9.613-9.578
		l9.613,9.578L65.436-8l8.013,7.984L73.431,0L73.449,0.016z"/>
	<path fill="#FFFFFF" d="M69.855-15.71l-0.038,0.038l-14.032-13.98l-14.032,13.98l-0.038-0.038L25.964-0.016L25.979,0l-0.016,0.016
		l15.75,15.694l0.038-0.038l14.032,13.98l14.032-13.98l0.038,0.038L85.606,0.016L85.59,0l0.016-0.016L69.855-15.71z M81.439,0.016
		L69.43,11.981l-0.038-0.038L55.785,25.502L42.177,11.943l-0.038,0.038L30.13,0.016L30.146,0L30.13-0.016l12.009-11.965l0.038,0.038
		l13.607-13.559l13.607,13.559l0.038-0.038L81.439-0.016L81.423,0L81.439,0.016z"/>
	<path fill="#FFFFFF" d="M73.851-19.689l-0.037,0.037L55.785-37.618L37.755-19.652l-0.037-0.037L17.972-0.016L17.988,0l-0.017,0.016
		l19.747,19.674l0.037-0.037l18.029,17.965l18.029-17.965l0.037,0.037L93.598,0.016L93.582,0l0.017-0.016L73.851-19.689z
		 M89.431,0.016L73.426,15.962l-0.038-0.038L55.785,33.463L38.181,15.925l-0.038,0.038L22.139,0.016L22.154,0l-0.016-0.016
		l16.004-15.947l0.038,0.038l17.604-17.539l17.604,17.539l0.038-0.038L89.431-0.016L89.416,0L89.431,0.016z"/>
	<path fill="#FFFFFF" d="M77.847-23.673l-0.038,0.039L55.785-45.579L33.76-23.634l-0.038-0.039L9.979-0.016L9.996,0L9.979,0.016
		l23.743,23.657l0.038-0.039l22.024,21.944l22.024-21.944l0.038,0.039L101.59,0.016L101.574,0l0.017-0.016L77.847-23.673z
		 M97.422,0.016L77.421,19.943l-0.038-0.039L55.785,41.426L34.186,19.905l-0.038,0.039l-20-19.928L14.164,0l-0.017-0.016l20-19.928
		l0.038,0.039l21.599-21.521l21.599,21.521l0.038-0.039L97.422-0.016L97.406,0L97.422,0.016z"/>
	<polygon fill="#FFFFFF" points="109.949,-55.657 109.911,-55.619 109.888,-55.641 109.906,-55.657 105.74,-55.657 105.722,-55.641 
		109.486,-51.891 109.524,-51.929 111.57,-49.89 111.57,-54.042 	"/>
	<polygon fill="#FFFFFF" points="105.916,-51.638 101.898,-55.641 101.914,-55.657 97.748,-55.657 97.731,-55.641 105.491,-47.911 
		105.528,-47.948 111.57,-41.927 111.57,-46.08 105.953,-51.675 	"/>
	<polygon fill="#FFFFFF" points="101.918,-47.657 93.906,-55.641 93.922,-55.657 89.756,-55.657 89.74,-55.641 101.495,-43.928 
		101.533,-43.966 111.57,-33.965 111.57,-38.117 101.957,-47.695 	"/>
	<polygon fill="#FFFFFF" points="97.924,-43.675 85.916,-55.641 85.931,-55.657 81.764,-55.657 81.749,-55.641 97.5,-39.947 
		97.538,-39.984 111.57,-26.005 111.57,-30.155 97.962,-43.713 	"/>
	<polygon fill="#FFFFFF" points="93.928,-39.694 77.923,-55.641 77.939,-55.657 73.773,-55.657 73.756,-55.641 93.503,-35.967 
		93.541,-36.004 111.57,-18.039 111.57,-22.193 93.966,-39.732 	"/>
	<polygon fill="#FFFFFF" points="89.932,-35.713 69.932,-55.641 69.949,-55.657 65.781,-55.657 65.764,-55.641 89.507,-31.984 
		89.545,-32.022 111.57,-10.078 111.57,-14.23 89.971,-35.751 	"/>
	<polygon fill="#FFFFFF" points="85.936,-31.731 61.939,-55.641 61.957,-55.657 57.792,-55.657 57.775,-55.641 85.511,-28.004 
		85.549,-28.042 111.57,-2.117 111.57,-6.267 85.974,-31.769 	"/>
</g>
</svg>
