<?xml version="1.0" encoding="utf-8"?>
<!DOCTYPE svg PUBLIC "-//W3C//DTD SVG 1.0//EN" "http://www.w3.org/TR/2001/REC-SVG-20010904/DTD/svg10.dtd">
<svg version="1.0" id="Layer_1" xmlns="http://www.w3.org/2000/svg" xmlns:xlink="http://www.w3.org/1999/xlink" x="0px" y="0px"
	 width="100%" height="100%" viewBox="0 0 279.131 139.564" enable-background="new 0 0 279.131 139.564"
	 xml:space="preserve">
<path fill="#FFFFFF" d="M0,0c0,77.08,62.486,139.564,139.565,139.564C216.644,139.565,279.13,77.08,279.13,0H0z"/>
<g>
	<path fill="#66BBE9" d="M102.56,22.8c0-0.326-0.261-0.586-0.589-0.586h-0.87c-0.321,0-0.587,0.264-0.587,0.586v9.099
		c0,0.324,0.267,0.586,0.589,0.586h0.868c0.329,0,0.589-0.262,0.589-0.586V22.8L102.56,22.8z"/>
	<path fill="#66BBE9" d="M103.671,23.046v0.432c0,0.179,0.145,0.323,0.322,0.323h6.002c0.271,0,0.492-0.225,0.492-0.499v-0.731
		c0-0.271-0.222-0.518-0.492-0.493c0,0-5.804,0.567-5.989,0.592C103.791,22.693,103.671,22.862,103.671,23.046L103.671,23.046z"/>
	<path fill="#66BBE9" d="M98.81,32.488h0.799c0.248,0,0.445-0.199,0.445-0.442v-0.664c0-0.245-0.197-0.445-0.448-0.445h-0.117
		c-0.712,0-1.118-0.45-1.118-1.113v-3.367h1.324c0.225,0,0.41-0.183,0.41-0.406V25.44c0-0.228-0.186-0.411-0.411-0.411h-1.323V22.79
		c0-0.318-0.256-0.573-0.575-0.573h-0.851c-0.315,0-0.569,0.253-0.569,0.57v2.24h-0.424c-0.228,0-0.411,0.185-0.411,0.411v0.609
		c0,0.225,0.181,0.406,0.405,0.406h0.431l0.004,3.64C96.38,31.36,97.319,32.488,98.81,32.488L98.81,32.488z"/>
	<path fill="#66BBE9" d="M84.828,26.323c0.892,0,1.665,0.631,1.74,1.492h-3.459C83.18,26.955,83.94,26.323,84.828,26.323v-1.562
		c-2.409,0-3.762,1.887-3.762,3.877c0,2.122,1.445,3.994,3.782,3.994c1.594,0,3.169-0.844,3.466-2.228
		c0.042-0.185-0.082-0.43-0.349-0.432H86.82c-0.2,0-0.37,0.097-0.474,0.251c-0.323,0.479-0.805,0.73-1.509,0.73
		c-1.002,0-1.696-0.784-1.75-1.657h4.855c0.447,0,0.648-0.244,0.648-0.659c0-1.938-1.148-3.877-3.761-3.877L84.828,26.323
		L84.828,26.323z"/>
	<path fill="#66BBE9" d="M106.938,26.323c0.89,0,1.661,0.631,1.735,1.492h-3.459C105.287,26.955,106.05,26.323,106.938,26.323
		v-1.562c-2.414,0-3.763,1.887-3.763,3.877c0,2.122,1.446,3.994,3.778,3.994c1.595,0,3.169-0.844,3.467-2.228
		c0.044-0.185-0.083-0.43-0.345-0.432h-1.141c-0.209,0-0.375,0.097-0.479,0.251c-0.323,0.479-0.808,0.73-1.513,0.73
		c-0.997,0-1.687-0.784-1.745-1.657h4.854c0.443,0,0.646-0.244,0.646-0.659c0-1.938-1.149-3.877-3.759-3.877V26.323z"/>
	<path fill="#66BBE9" d="M94.747,22.315H79.026c-0.356,0-0.617,0.291-0.617,0.647v6.173c0,0-3.356-6.117-3.535-6.431
		c-0.168-0.293-0.524-0.561-1.018-0.561h-1.294c-0.356,0-0.645,0.29-0.645,0.646v9.052c0,0.358,0.288,0.644,0.645,0.644h0.83
		c0.357,0,0.623-0.287,0.623-0.645v-6.345c0,0,3.391,6.175,3.54,6.418c0.197,0.328,0.531,0.57,1.012,0.57h1.188
		c0.354,0,0.645-0.285,0.645-0.644v-7.99h14.347c0.244,0,0.438-0.201,0.438-0.444v-0.649C95.185,22.513,94.991,22.315,94.747,22.315
		L94.747,22.315z"/>
	<path fill="#66BBE9" d="M92.2,26.243c0.687,0,1.194,0.25,1.377,0.678c0.091,0.208,0.261,0.245,0.496,0.245h0.943
		c0.152,0,0.329-0.129,0.329-0.337c0-1.093-1.295-2.066-3.144-2.066c-1.91,0-3.16,0.906-3.16,2.356c0,1.107,0.872,1.769,1.951,2.052
		c0.491,0.125,1.327,0.333,1.736,0.438c0.438,0.118,0.833,0.251,0.833,0.626c0,0.597-0.628,0.8-1.313,0.8
		c-0.648,0-1.291-0.289-1.48-0.751c-0.106-0.27-0.295-0.31-0.58-0.31h-0.952c-0.167,0-0.363,0.142-0.363,0.361v0.122
		c0,1.06,1.427,2.163,3.378,2.163c1.389,0,3.32-0.575,3.32-2.435c0-1.076-0.716-1.827-1.893-2.122
		c-0.459-0.118-1.563-0.396-1.803-0.459c-0.431-0.106-0.823-0.247-0.823-0.617C91.051,26.436,91.56,26.243,92.2,26.243L92.2,26.243z
		"/>
	<path fill="#66BBE9" d="M111.515,32.195h0.226v-0.482h0.245c0.166,0,0.182,0.065,0.182,0.236c0,0.126,0.003,0.189,0.02,0.246h0.256
		v-0.035c-0.048-0.016-0.048-0.062-0.048-0.243c0-0.23-0.05-0.268-0.136-0.312c0.102-0.04,0.163-0.154,0.163-0.295
		c0-0.104-0.051-0.342-0.341-0.342h-0.565v1.228H111.515z M111.741,31.505v-0.331h0.29c0.14,0,0.164,0.103,0.164,0.162
		c0,0.126-0.059,0.169-0.18,0.169H111.741z"/>
	<path fill="#66BBE9" d="M110.901,31.581c0,0.574,0.466,1.036,1.037,1.036s1.035-0.461,1.035-1.036c0-0.572-0.464-1.04-1.035-1.04
		C111.368,30.541,110.901,31.008,110.901,31.581z M111.023,31.581c0-0.508,0.409-0.921,0.916-0.921c0.505,0,0.918,0.413,0.918,0.921
		c0,0.507-0.413,0.915-0.918,0.915C111.432,32.496,111.023,32.087,111.023,31.581z"/>
</g>
<path fill="#2E2D76" d="M106.861,48.415c0.498-2.329-0.777-4.215-2.84-4.215c-2.062,0-4.136,1.886-4.634,4.215
	c-0.492,2.331,0.775,4.216,2.841,4.216C104.291,52.63,106.371,50.745,106.861,48.415z"/>
<g>
	<path fill="#2E2D76" d="M208.397,66.64h0.263v-0.559h0.28c0.199,0,0.209,0.08,0.209,0.271c0,0.148,0.009,0.216,0.025,0.287h0.297
		V66.6c-0.052-0.023-0.052-0.074-0.052-0.279c0-0.265-0.062-0.308-0.163-0.357c0.118-0.049,0.191-0.179,0.191-0.339
		c0-0.117-0.061-0.396-0.402-0.396h-0.648V66.64z M208.66,65.848v-0.376h0.335c0.158,0,0.188,0.111,0.188,0.187
		c0,0.134-0.072,0.189-0.205,0.189H208.66z"/>
	<path fill="#2E2D76" d="M207.679,65.936c0,0.652,0.54,1.184,1.208,1.184c0.661,0,1.202-0.531,1.202-1.184
		c0-0.655-0.541-1.188-1.202-1.188C208.219,64.747,207.679,65.279,207.679,65.936z M207.823,65.936c0-0.579,0.471-1.049,1.062-1.049
		c0.586,0,1.063,0.471,1.063,1.049c0,0.577-0.478,1.046-1.063,1.046C208.294,66.982,207.823,66.512,207.823,65.936z"/>
	<path fill="#FFFFFF" d="M71.397,63.487l-3.95,15.893c-0.417,1.448-0.259,2.757,0.441,3.698c0.606,0.808,1.564,1.25,2.691,1.25
		h3.138c0.95,0,2.353-0.13,3.537-1.261c0.924-0.875,1.546-2.168,2.034-4.184l4.131-16.626c3.008-0.505,5.773-0.778,7.881-0.778
		c1.617,0,2.179,0.169,2.273,0.203l0.434,0.25c-0.007,0.032-0.017,0.065-0.026,0.104l-0.006,0.012l-4.333,17.33
		c-0.414,1.45-0.256,2.759,0.446,3.701c0.604,0.808,1.559,1.25,2.685,1.25h1.869c0.951,0,2.358-0.13,3.541-1.261
		c0.918-0.875,1.549-2.165,2.034-4.179l3.613-14.45c0.107-0.421,0.22-0.844,0.329-1.267c0.361-1.435,0.734-2.886,1.11-4.233
		c0.038,0.055,0.079,0.114,0.121,0.165c0.554,0.725,1.317,1.271,2.26,1.617c0.325,0.126,0.686,0.219,1.06,0.297l-2.602,10.458
		c-1.416,5.358-1.275,9.043,0.434,11.268c0.753,0.978,2.204,2.147,4.842,2.147c1.772,0,3.685-0.568,5.532-1.656
		c0.996-0.578,1.933-1.296,2.76-2.092c0.039,0.735,0.262,1.394,0.662,1.936c0.605,0.808,1.559,1.25,2.69,1.25h1.871
		c0.951,0,2.353-0.13,3.539-1.261c0.917-0.875,1.544-2.165,2.035-4.179l2.233-8.933l0.004-0.025c0.793-3.631,2.238-6.04,3.309-7.417
		c0.792-1.014,1.533-1.673,2.064-2.042c-0.042,0.401-0.138,0.989-0.33,1.818l-4.251,17.09c-0.418,1.448-0.26,2.757,0.439,3.698
		c0.608,0.808,1.563,1.25,2.691,1.25h1.87c0.948,0,2.354-0.13,3.542-1.261c0.915-0.875,1.543-2.168,2.029-4.184l0.346-1.394
		c0.318,1.825,1,3.352,2.033,4.556c0.812,0.944,1.826,1.669,3.018,2.146c1.174,0.478,2.527,0.717,4.016,0.717
		c2.176,0,4.233-0.37,6.108-1.105c0.796-0.311,1.623-0.721,2.369-1.17c0.259-0.153,0.515-0.315,0.763-0.484
		c1.315-0.764,2.531-0.965,4.129,0.303c1.894,1.576,4.488,2.446,7.314,2.446c1.936,0,3.779-0.294,5.484-0.871
		c1.142-0.388,2.197-0.891,3.154-1.508c1.781-1.213,3.491-2.209,5.185-0.477l0.003-0.007c0.152,0.144,0.303,0.28,0.459,0.416
		c1.893,1.576,4.488,2.446,7.312,2.446c1.936,0,3.784-0.294,5.487-0.871c1.651-0.558,3.13-1.368,4.386-2.404
		c1.258-1.042,2.248-2.27,2.939-3.645c0.711-1.421,1.072-2.932,1.072-4.498c0-2.346-0.709-4.339-2.164-6.091
		c-0.225-0.271-0.445-0.54-0.706-0.77c-0.753-0.681-0.453-1.654,0.373-1.929c1.106-0.367,2.125-0.931,2.931-1.762
		c1.162-1.198,1.826-2.796,1.826-4.385c0-1.99-0.996-3.769-2.793-5.001c-1.621-1.108-3.74-1.689-6.151-1.689
		c-6.917,0-8.534,3.77-11.422,3.77c-2.851,0-3.833-3.77-10.175-3.77c-3.219,0-6.223,1.035-8.58,2.754
		c-2.189,1.602-3.012,0.471-4.46-0.869c-1.315-1.213-3.062-1.885-5.104-1.885c-3.121,0-6.295,1.155-9.166,3.257
		c-1.352,0.995-2.273,1.413-3.509,1.31c-1.293-0.113-2.163-1.636-3.086-2.728c-0.991-1.181-2.397-1.839-4.317-1.839
		c-1.814,0-3.809,0.632-5.768,1.828l0.891-1.943l-2.892,0.115c-3.067,0.128-5.605,1.204-7.539,3.202
		c-0.012,0.011-0.024,0.027-0.033,0.036c-0.105-0.479-0.298-0.911-0.572-1.31c-0.468-0.659-1.146-1.164-2.022-1.481
		c-0.808-0.297-1.771-0.439-2.941-0.439c-0.25,0-0.515,0.011-0.789,0.021c0.535-1.954,1.106-3.834,1.68-5.076l1.208-2.628
		l-2.892,0.116c-3.071,0.125-5.603,1.201-7.537,3.202c-1.417,1.465-2.498,3.39-3.285,5.862c-1.278-0.076-2.855-0.606-3.461-1.21
		c0.673-0.857,1.304-2.26,1.535-3.364c0.328-1.529,0.094-3.014-0.62-4.183c0.486,0.175,0.948,0.379,1.375,0.605l1.498,0.786
		l0.851-1.464c0.341-0.572,0.947-1.769,1.198-3.282c0.267-1.611,0.04-3.105-0.665-4.332c-0.665-1.164-1.729-2.058-3.155-2.658
		c-1.435-0.601-3.276-0.906-5.477-0.906c-4.569,0-9.566,0.947-14.388,1.865c-4.497,0.854-8.739,1.655-12.321,1.655
		c-2.358,0-4.17-0.354-5.534-1.081l-1.66-0.894l-0.787,1.713c-0.498,1.083-0.726,2.292-0.655,3.496
		c0.075,1.237,0.453,2.443,1.109,3.5c0.734,1.188,1.818,2.176,3.126,2.865c0.832,0.439,1.754,0.759,2.762,0.958l-2.031,8.161
		L71.397,63.487z M97.792,48.047c-0.372,1.751-0.02,3.452,0.97,4.671c0.234,0.291,0.494,0.543,0.774,0.759
		c-0.702,0.441-1.355,0.965-1.948,1.578c-0.144,0.149-0.279,0.303-0.416,0.459c-0.097-0.495-0.282-0.952-0.543-1.37
		c-0.54-0.875-1.392-1.508-2.528-1.883c-0.855-0.279-1.865-0.418-3.09-0.418c-1.595,0-3.384,0.233-5.139,0.548l1.626-6.541
		c3.828-0.923,8.662-2.018,13.121-2.187C99.24,44.686,98.17,46.255,97.792,48.047z M124.232,62.034l-0.002,0.012l-3.43,13.731
		c-0.396-0.259-0.878-0.4-1.397-0.4c-0.52,0-1.05,0.139-1.578,0.411c-1.205,0.621-1.862,0.779-2.169,0.816
		c-0.023-0.163-0.04-0.425-0.006-0.843c0.045-0.597,0.181-1.37,0.417-2.358l3.364-13.5c1.224-0.176,2.563-0.331,3.681-0.331
		c0.762,0,1.383,0.069,1.849,0.206C124.694,60.482,124.448,61.23,124.232,62.034z"/>
	<path fill="#2E2D76" d="M156.879,71.634c5.876,0,11.738-5.879,11.738-12.713c0-3.336-2.224-5.297-5.392-5.297
		c-8.754,0-17.242,10.39-17.242,21.31c0,4.945,2.332,8.202,7.5,8.202c4.129,0,7.224-1.442,9.674-3.545
		c1.166-1,0.249-1.873-0.834-1.292c-1.082,0.588-2.79,1.51-5.094,1.27c-4.226-0.448-4.299-5.367-3.771-8.854
		C154.863,71.537,156.173,71.634,156.879,71.634z M161.031,56.296c1.377,0,1.622,1.202,1.622,2.331c0,3.483-3.15,11.729-8.775,9.91
		C155.151,62.894,157.957,56.296,161.031,56.296z"/>
	<path fill="#2E2D76" d="M181.483,62.955c4.494,1.189,7.056-1.845,7.056-4.41c0-2.879-3-4.92-7.168-4.92
		c-5.624,0-10.776,3.437-10.776,8.797c0,7.015,9.672,8.014,9.672,13.004c0,2.183-2.004,4.314-4.756,4.314
		c-4.128,0-4.891-4.655-3.73-8.2c0.324-1.009-0.103-1.14-0.95-1.079c-2.729,0.2-5.177,2.759-5.177,5.912
		c0,3.571,3.389,6.752,8.517,6.752c7.171,0,12.111-4.44,12.111-9.644c0-7.881-9.669-7.935-9.669-13.477
		c0-1.332,1.207-3.708,3.893-3.708C184.129,56.296,183.783,61.174,181.483,62.955z"/>
	<path fill="#2E2D76" d="M203.087,62.955c4.492,1.189,7.051-1.845,7.051-4.41c0-2.879-3.003-4.92-7.17-4.92
		c-5.624,0-10.771,3.437-10.771,8.797c0,7.015,9.666,8.014,9.666,13.004c0,2.183-1.996,4.314-4.761,4.314
		c-4.117,0-4.884-4.655-3.727-8.2c0.329-1.009-0.1-1.14-0.945-1.079c-2.729,0.2-5.175,2.759-5.175,5.912
		c0,3.571,3.39,6.752,8.513,6.752c7.17,0,12.11-4.44,12.11-9.644c0-7.881-9.663-7.935-9.663-13.477c0-1.332,1.202-3.708,3.887-3.708
		C205.728,56.296,205.379,61.174,203.087,62.955z"/>
	<path fill="#2E2D76" d="M70.58,82.558h3.138c1.861,0,3.027-0.692,3.849-4.096l4.412-17.756c6.426-1.167,11.293-1.236,12.439-0.583
		c3.947-7.955-3.682-7-10.942-5.452l2.563-10.292c7.512-1.82,17.652-4.208,24.272-0.743c1.378-2.353,3.04-8.515-6.568-8.515
		c-11.308,0-25.825,6.122-33.084,2.23c-1.545,3.37,0.401,8.329,6.94,8.543l-8.441,33.948C68.755,81.216,69.042,82.558,70.58,82.558z
		"/>
	<path fill="#2E2D76" d="M95.695,62.49l-4.342,17.353c-0.401,1.374-0.119,2.715,1.423,2.715h1.866c1.865,0,3.03-0.692,3.853-4.096
		L102.116,64c0.987-3.847,1.99-7.995,3.081-10.375C99.654,53.851,97.017,57.549,95.695,62.49z"/>
	<path fill="#2E2D76" d="M105.663,55.397c-0.077,3.124,1.17,4.035,5.487,3.49l-3.238,13.034c-1.234,4.651-2.11,11.197,3.56,11.197
		c2.998,0,6.53-2.126,8.501-4.925c0.5-0.706-0.123-1.409-1.251-0.829c-5.334,2.751-5.205-0.499-4.291-4.378l3.787-15.188
		c3.192-0.443,6.029-0.667,7.496-0.154c0.511-1.426,1.705-4.984-6.504-3.75c0.781-3.032,1.58-5.976,2.433-7.828
		c-5.544,0.227-8.183,3.919-9.505,8.859l-0.083,0.336C109.206,55.623,106.349,55.665,105.663,55.397z"/>
	<path fill="#2E2D76" d="M143.147,53.625c-2.777,0-6.821,1.973-10.249,6.796c0.647-2.441,1.854-5.271,2.554-6.796
		c-5.55,0.227-8.184,3.925-9.504,8.866l-4.34,17.353c-0.406,1.374-0.122,2.715,1.418,2.715h1.871c1.865,0,3.034-0.692,3.847-4.096
		l2.234-8.91c1.668-7.612,6.201-11.218,7.669-11.218c1.21,0,1.626,0.96,0.832,4.372l-4.265,17.138
		c-0.409,1.374-0.12,2.715,1.417,2.715h1.87c1.863,0,3.028-0.692,3.851-4.096l3.547-14.249
		C147.94,56.204,146.735,53.625,143.147,53.625z"/>
</g>
<g>
	<path fill="#73BF44" d="M138.231,37.812l-1.796,1.778c-1.135-1.205-2.461-1.805-3.972-1.805c-1.32,0-2.422,0.437-3.315,1.312
		c-0.888,0.875-1.334,1.935-1.334,3.187c0,1.291,0.464,2.389,1.384,3.287c0.923,0.9,2.062,1.348,3.422,1.348
		c0.876,0,1.619-0.188,2.221-0.558c0.607-0.368,1.094-0.947,1.469-1.737h-3.88V42.23h6.735l0.021,0.562
		c0,1.173-0.306,2.287-0.916,3.336c-0.604,1.044-1.386,1.851-2.354,2.399c-0.966,0.553-2.099,0.829-3.397,0.829
		c-1.391,0-2.629-0.3-3.716-0.904c-1.094-0.604-1.955-1.465-2.59-2.58c-0.633-1.117-0.946-2.325-0.946-3.615
		c0-1.774,0.581-3.314,1.752-4.626c1.391-1.558,3.201-2.344,5.427-2.344c1.167,0,2.253,0.221,3.269,0.648
		C136.575,36.304,137.407,36.926,138.231,37.812z"/>
	<path fill="#73BF44" d="M145.608,35.629h2.588l5.148,13.393h-2.647l-1.05-2.759h-5.463l-1.09,2.759h-2.648L145.608,35.629z
		 M146.916,39.181l-1.792,4.598h3.582L146.916,39.181z"/>
	<path fill="#73BF44" d="M155.317,35.629h2.548V46.59h3.716v2.431h-6.264V35.629z"/>
	<path fill="#73BF44" d="M163.521,35.629h2.547V46.59h3.72v2.431h-6.267V35.629z"/>
	<path fill="#73BF44" d="M171.731,35.629h7.312v2.495h-4.781v2.42h4.781v2.451h-4.781v3.522h4.781v2.504h-7.312V35.629z"/>
	<path fill="#73BF44" d="M180.097,35.629h7.405v2.511h-2.442v10.881h-2.584v-10.88h-2.379V35.629z"/>
	<path fill="#73BF44" d="M193.336,35.629h2.583l5.15,13.393h-2.65l-1.044-2.759h-5.467l-1.093,2.759h-2.646L193.336,35.629z
		 M194.642,39.181l-1.795,4.598h3.584L194.642,39.181z"/>
	<path fill="#73BF44" d="M210.072,37.451l-1.888,1.663c-0.664-0.921-1.343-1.384-2.028-1.384c-0.334,0-0.607,0.092-0.815,0.268
		c-0.219,0.182-0.324,0.384-0.324,0.606c0,0.229,0.078,0.437,0.23,0.638c0.206,0.27,0.829,0.844,1.867,1.723
		c0.973,0.812,1.562,1.326,1.771,1.538c0.516,0.526,0.885,1.021,1.096,1.497c0.215,0.479,0.324,0.999,0.324,1.562
		c0,1.099-0.381,2.007-1.139,2.721c-0.762,0.718-1.748,1.074-2.968,1.074c-0.953,0-1.791-0.232-2.495-0.698
		c-0.711-0.469-1.312-1.202-1.818-2.205l2.141-1.291c0.644,1.181,1.389,1.772,2.226,1.772c0.438,0,0.808-0.128,1.104-0.384
		c0.3-0.251,0.444-0.55,0.444-0.883c0-0.304-0.105-0.606-0.337-0.909c-0.222-0.301-0.721-0.767-1.484-1.395
		c-1.459-1.186-2.398-2.107-2.825-2.75c-0.429-0.646-0.64-1.296-0.64-1.938c0-0.927,0.359-1.725,1.061-2.385
		c0.706-0.667,1.584-1.005,2.626-1.005c0.667,0,1.298,0.157,1.903,0.471C208.708,36.068,209.362,36.631,210.072,37.451z"/>
</g>
</svg>
