<?xml version="1.0" encoding="utf-8"?>
<!DOCTYPE svg PUBLIC "-//W3C//DTD SVG 1.0//EN" "http://www.w3.org/TR/2001/REC-SVG-20010904/DTD/svg10.dtd">
<svg version="1.0" id="Layer_1" xmlns="http://www.w3.org/2000/svg" xmlns:xlink="http://www.w3.org/1999/xlink" x="0px" y="0px"
	 width="10.807px" height="25.918px" viewBox="0 0 10.807 25.918" enable-background="new 0 0 10.807 25.918" xml:space="preserve">
<g>
	<path fill="#FFFFFF" d="M10.805,8.862c0,1.324,0.001,2.648,0,3.973c-0.003,2.736-2.123,4.855-4.86,4.854
		c-0.805,0-1.611,0.047-2.403-0.173c-2.058-0.569-3.52-2.438-3.531-4.574c-0.014-2.741-0.015-5.483,0-8.224
		C0.025,2.156,2.139,0.04,4.699,0.013c0.865-0.009,1.734-0.066,2.588,0.169c2.039,0.562,3.498,2.433,3.514,4.552
		c0.012,1.376,0.002,2.752,0.002,4.128C10.804,8.862,10.805,8.862,10.805,8.862z M0.931,8.851c0,0,0.001,0,0.002,0
		c0,1.365-0.009,2.73,0.002,4.096c0.015,1.712,1.136,3.223,2.802,3.617c0.74,0.175,1.536,0.157,2.307,0.152
		c2.116-0.015,3.782-1.656,3.804-3.776C9.877,10.22,9.874,7.5,9.85,4.78C9.833,2.886,8.535,1.348,6.684,1.038
		C6.038,0.93,5.363,0.943,4.706,0.976c-2.271,0.112-3.77,1.716-3.774,3.997C0.93,6.266,0.931,7.559,0.931,8.851z"/>
	<path fill="#FFFFFF" d="M5.963,24.225c0.375-0.38,0.75-0.76,1.125-1.139c0.08-0.081,0.158-0.166,0.244-0.238
		c0.227-0.19,0.521-0.184,0.695,0.01c0.174,0.192,0.164,0.452-0.042,0.666c-0.302,0.313-0.612,0.616-0.92,0.923
		c-0.424,0.425-0.844,0.851-1.272,1.271c-0.274,0.27-0.508,0.268-0.776,0c-0.718-0.715-1.434-1.431-2.149-2.148
		c-0.249-0.251-0.27-0.53-0.064-0.734c0.212-0.211,0.471-0.182,0.734,0.068c0.455,0.434,0.915,0.863,1.368,1.289
		c0.003-0.034,0.016-0.119,0.016-0.204c0.001-1.22,0.001-2.44,0.001-3.661c0-0.104-0.009-0.208,0.006-0.309
		c0.042-0.266,0.188-0.438,0.467-0.454c0.25-0.015,0.457,0.185,0.485,0.466c0.015,0.143,0.007,0.289,0.007,0.434
		c0,1.24,0,2.479,0,3.719C5.914,24.197,5.938,24.211,5.963,24.225z"/>
	<path fill="#FFFFFF" d="M5.887,5.822c0,0.517,0.002,1.034-0.001,1.552C5.884,7.749,5.703,7.98,5.416,7.988
		C5.119,7.996,4.925,7.755,4.924,7.365c-0.002-1.045-0.003-2.09,0-3.135c0.001-0.367,0.195-0.596,0.488-0.592
		c0.299,0.003,0.473,0.217,0.475,0.602C5.891,4.767,5.888,5.294,5.887,5.822C5.888,5.822,5.888,5.822,5.887,5.822z"/>
</g>
</svg>
